:SAMPLES-PER-SECOND 30
:FULLY-SPECIFIED
:DEGREES
164
root  49.9504 34.2088 4.33444 64.7177 -76.7796 -48.4305
RightUpLeg  -52.5613 -13.6184 6.61088
RightLeg  45.7608 1.63971 1.44277
RightFoot  -8.49252 -0.180718 4.37059
RightToes  -8.3237e-009 0 -3.6325e-017
Spine  34.4311 3.10619 0.758732
Spine1  7.74669 2.22402 -6.81235
HEad  -33.7867 -17.7338 1.84969
LeftShoulder1  0.219447 2.88008 -29.1416
LeftArm  -26.0396 -12.2167 -19.8495
LeftForeArm  42.685 -60.1819 -15.658
LeftHand  -0.0294421 4.49206 0.611225
RightShoulder  -0.223993 -4.14776 27.1836
RightArm  16.6511 -0.699904 48.3064
RightForeArm  9.81702 38.315 8.25224
RightHand  -0.360227 4.73796 -4.41441
LeftUpLeg  -42.19 5.18165 11.4843
LeftLeg  87.9914 -48.209 -90.0632
LeftFoot  -19.252 -0.0348824 -2.20214
LeftToes  -1.18267e-011 3.61711e-011 9.57411e-011
165
root  49.1184 34.3705 3.72801 62.0215 -78.9851 -46.1722
RightUpLeg  -50.5728 -12.0231 4.36173
RightLeg  46.6116 1.55204 1.39896
RightFoot  -12.1231 -0.0415247 6.83591
RightToes  -8.3237e-009 0 -3.6325e-017
Spine  34.4291 2.61665 0.63629
Spine1  7.13715 1.89893 -6.20467
HEad  -33.5862 -16.947 1.31366
LeftShoulder1  0.0894123 3.25765 -29.9133
LeftArm  -25.6214 -7.92781 -18.0606
LeftForeArm  41.2866 -58.8892 -14.8937
LeftHand  -0.0283558 5.28374 -0.133485
RightShoulder  -0.2288 -4.1501 27.7544
RightArm  18.5441 -1.86453 47.7846
RightForeArm  8.55771 35.4423 7.49439
RightHand  -0.348208 4.38406 -4.4164
LeftUpLeg  -39.7501 4.20922 11.0648
LeftLeg  87.9043 -49.0178 -89.9666
LeftFoot  -19.7547 0.0361214 -1.10643
LeftToes  -1.18267e-011 3.61711e-011 9.57411e-011
166
root  48.2686 34.6625 3.1099 55.1991 -80.8752 -40.4859
RightUpLeg  -48.3656 -12.8963 3.42925
RightLeg  47.1823 2.0239 1.97377
RightFoot  -12.2563 -0.0495357 4.27768
RightToes  -8.3237e-009 0 -3.6325e-017
Spine  34.5552 1.82245 1.25136
Spine1  7.59923 1.59648 -6.13763
HEad  -33.984 -15.452 0.773382
LeftShoulder1  -0.0664933 3.68916 -29.5575
LeftArm  -25.6377 -5.19249 -18.8931
LeftForeArm  38.4985 -56.7121 -13.7734
LeftHand  -0.0285414 5.18676 0.071645
RightShoulder  -0.267038 -4.25303 28.2043
RightArm  20.6223 -1.76147 47.7675
RightForeArm  6.29111 31.8578 6.66361
RightHand  -0.334818 4.86246 -4.0849
LeftUpLeg  -36.757 2.43381 10.5838
LeftLeg  86.1471 -49.4846 -87.6391
LeftFoot  -20.4081 0.0230637 -1.26127
LeftToes  -1.18267e-011 3.61711e-011 9.57411e-011
167
root  47.379 34.9954 2.46871 49.822 -82.537 -36.2083
RightUpLeg  -45.7389 -13.7945 2.99388
RightLeg  47.1959 2.98469 3.08603
RightFoot  -13.1021 -0.0498521 2.5143
RightToes  -8.3237e-009 0 -3.6325e-017
Spine  34.0056 1.61016 1.41866
Spine1  8.08206 1.65339 -5.14892
HEad  -33.7184 -14.2022 0.0548508
LeftShoulder1  -0.150574 3.91826 -30.2104
LeftArm  -25.4185 -3.05759 -20.5025
LeftForeArm  34.9811 -54.2106 -12.6743
LeftHand  -0.0282348 5.30771 1.7939
RightShoulder  -0.253583 -4.21332 28.2356
RightArm  22.4909 -1.27572 47.7044
RightForeArm  4.2309 28.2677 5.88781
RightHand  -0.301292 4.79574 -3.73157
LeftUpLeg  -34.1534 1.17724 10.4141
LeftLeg  84.182 -48.7245 -84.9843
LeftFoot  -20.3111 0.093034 -0.359891
LeftToes  -1.18267e-011 3.61711e-011 9.57411e-011
168
root  46.4934 35.2289 1.91791 49.0256 -84.1533 -36.7687
RightUpLeg  -42.9533 -14.2054 2.7397
RightLeg  47.4922 3.85031 4.12914
RightFoot  -14.3986 -0.0621202 1.34917
RightToes  -8.3237e-009 0 -3.6325e-017
Spine  33.4644 1.35839 2.44517
Spine1  8.15874 1.73282 -4.47445
HEad  -33.3645 -12.7288 -0.669196
LeftShoulder1  -0.201413 4.05667 -30.3365
LeftArm  -25.0421 -1.09857 -23.0013
LeftForeArm  31.7875 -51.6716 -11.6859
LeftHand  -0.0359115 4.79648 2.40683
RightShoulder  -0.278115 -4.27711 28.4939
RightArm  23.2019 -0.378069 47.6729
RightForeArm  2.09174 25.7649 5.41797
RightHand  -0.308487 4.28982 -3.97598
LeftUpLeg  -32.4707 -0.2657 10.387
LeftLeg  83.0782 -46.2842 -83.2482
LeftFoot  -19.3091 0.168713 0.730563
LeftToes  -1.18267e-011 3.61711e-011 9.57411e-011
169
root  45.6438 35.1753 1.60337 60.504 -84.8146 -49.7881
RightUpLeg  -40.4883 -14.6322 3.36753
RightLeg  48.8091 4.84332 5.52902
RightFoot  -16.1014 -0.104889 0.102745
RightToes  -8.3237e-009 0 -3.6325e-017
Spine  32.5001 0.792646 5.69852
Spine1  8.1047 1.85172 -3.64117
HEad  -32.6465 -11.6452 -0.961288
LeftShoulder1  -0.247742 4.17729 -30.4316
LeftArm  -24.252 0.393095 -26.1452
LeftForeArm  28.8637 -48.6718 -10.5871
LeftHand  -0.0492486 4.05783 2.78369
RightShoulder  -0.390965 -4.59223 28.8442
RightArm  20.915 0.168827 47.371
RightForeArm  1.7107 25.3559 5.3472
RightHand  -0.327427 4.91876 -3.98273
LeftUpLeg  -31.4139 -1.21345 10.9953
LeftLeg  83.5774 -42.7085 -83.6071
LeftFoot  -18.5421 0.316294 3.34756
LeftToes  -1.18267e-011 3.61711e-011 9.57411e-011
170
root  44.7781 35.0269 1.44893 83.644 -84.5182 -74.3752
RightUpLeg  -38.2092 -14.7314 4.61804
RightLeg  50.3649 5.8011 7.04871
RightFoot  -17.6882 -0.166006 -0.849652
RightToes  -8.3237e-009 0 -3.6325e-017
Spine  31.3248 0.16405 9.46548
Spine1  7.6691 1.77909 -2.23616
HEad  -32.2528 -8.99777 -2.18021
LeftShoulder1  -0.44615 4.68687 -31.628
LeftArm  -23.0472 2.00706 -28.3948
LeftForeArm  28.1806 -45.9175 -9.5593
LeftHand  -0.0317807 5.04603 3.26194
RightShoulder  -0.305059 -4.36228 28.2614
RightArm  18.3161 1.22658 47.2732
RightForeArm  1.51008 26.1912 5.54805
RightHand  -0.340619 4.8219 -4.16665
LeftUpLeg  -31.2107 -0.776148 12.2434
LeftLeg  86.7212 -39.2925 -88.0833
LeftFoot  -16.2493 0.380992 6.5464
LeftToes  -1.18267e-011 3.61711e-011 9.57411e-011
